<svg xmlns="http://www.w3.org/2000/svg" width="512" height="512" viewBox="0 0 512 512" version="1.1"><path d="M 114.500 103.870 C 96.444 109.067, 81.932 122.359, 75.072 139.983 L 72.500 146.589 68 145.232 C 60.978 143.114, 48.740 144.051, 41.782 147.240 C 20.524 156.981, 12.593 183.458, 25.062 203.058 C 26.657 205.564, 29.066 208.653, 30.417 209.922 L 32.871 212.228 35.856 210.102 C 41.110 206.361, 53.257 201.094, 61.500 198.982 C 73.561 195.893, 90.709 196.111, 102.417 199.504 C 107.276 200.912, 112.143 202.541, 113.233 203.125 C 115.783 204.490, 116.223 203.905, 118.971 195.500 C 126.734 171.759, 145.028 147.965, 166.139 134.151 C 171.287 130.782, 176.335 127.447, 177.356 126.740 C 179.069 125.553, 178.637 124.909, 171.708 118.327 C 163.688 110.709, 155.677 106.193, 145.467 103.533 C 137.582 101.480, 122.224 101.646, 114.500 103.870 M 277 262.996 C 257.353 268.229, 240.627 280.856, 230.536 298.074 C 226.537 304.897, 222.456 315.775, 221.498 322.167 L 220.816 326.712 211.598 326.230 C 200.194 325.633, 193.761 327.309, 185.004 333.156 C 177.539 338.141, 171.281 346.222, 168.074 355.018 C 166.134 360.339, 165.838 362.759, 166.179 370.546 C 166.537 378.740, 166.998 380.611, 170.300 387.293 C 176.620 400.080, 187.988 408.561, 202.054 410.983 C 206.554 411.758, 236.876 412.002, 302.500 411.793 L 396.500 411.492 403 409.273 C 422.520 402.607, 436.708 387.442, 441.614 368 C 444.860 355.136, 442.069 338.395, 434.507 325.380 C 427.854 313.928, 412.752 303.101, 399.040 299.953 C 390.326 297.953, 378.448 298.359, 370.491 300.930 C 362.697 303.447, 363.971 304.107, 358 294.458 C 353.495 287.178, 341.230 275.550, 332.966 270.724 C 321.845 264.231, 312.476 261.754, 297.500 261.350 C 286.877 261.063, 283.129 261.364, 277 262.996" stroke="none" fill="#d4e8f0" fill-rule="evenodd"/><path d="M 225.500 113.130 C 178.010 116.123, 133.732 150.360, 118.971 195.500 C 116.223 203.905, 115.783 204.490, 113.233 203.125 C 112.143 202.541, 107.276 200.912, 102.417 199.504 C 90.709 196.111, 73.561 195.893, 61.500 198.982 C 30.486 206.927, 8.332 229.649, 1.453 260.565 C -1.078 271.944, -0.165 290.664, 3.450 301.500 C 13.022 330.191, 35.486 350.475, 64.271 356.421 C 70.611 357.730, 80.037 358, 119.489 358 C 163.911 358, 167.101 357.884, 167.639 356.250 C 171.352 344.976, 179.943 335.122, 190.652 329.852 C 197.203 326.629, 197.914 326.500, 209.157 326.500 L 220.848 326.500 221.514 322.061 C 222.457 315.767, 226.561 304.856, 230.536 298.074 C 240.862 280.455, 257.708 267.944, 277.923 262.880 C 284.936 261.123, 288.368 260.849, 298.423 261.244 C 312.411 261.792, 322.332 264.515, 332.966 270.724 C 341.230 275.550, 353.495 287.178, 358 294.458 C 363.971 304.107, 362.697 303.447, 370.491 300.930 C 388.793 295.017, 411.079 300.484, 425.394 314.398 C 435.528 324.248, 441.498 336.761, 442.668 350.605 L 443.293 358 450.987 358 C 460.462 358, 472.039 355.152, 480.314 350.785 C 489.456 345.960, 500.777 334.276, 505.318 324.978 C 510.948 313.450, 511.796 308.618, 512.275 285.335 C 512.511 273.876, 512.513 269.450, 512.280 275.500 L 511.856 286.500 509.609 278.848 C 503.802 259.069, 487.378 243.006, 467.237 237.406 L 461 235.672 460.983 226.586 C 460.941 204.933, 453.734 187.807, 438 171.969 C 423.295 157.167, 405.798 149.914, 384.500 149.791 C 367.328 149.692, 352.142 154.545, 338.391 164.526 C 336.381 165.985, 336.091 165.802, 332.180 160.623 C 326.644 153.289, 315.882 142.645, 308.539 137.240 C 283.909 119.108, 256.574 111.172, 225.500 113.130 M 0.385 277 C 0.385 283.875, 0.545 286.688, 0.740 283.250 C 0.936 279.813, 0.936 274.188, 0.740 270.750 C 0.545 267.313, 0.385 270.125, 0.385 277" stroke="none" fill="#209fb7" fill-rule="evenodd"/></svg>